<svg xmlns="http://www.w3.org/2000/svg" width="44.838" height="32.61" viewBox="0 0 44.838 32.61">
  <g id="_001-truck" data-name="001-truck" transform="translate(0 -64)">
    <g id="Grupo_2131" data-name="Grupo 2131" transform="translate(0 64)">
      <path id="Trazado_996" data-name="Trazado 996" d="M38.724,72.152H32.61V64H4.076A4.075,4.075,0,0,0,0,68.076V90.5H4.076a6.114,6.114,0,1,0,12.229,0H28.534a6.114,6.114,0,1,0,12.229,0h4.076V80.3Zm-28.533,21.4A3.057,3.057,0,1,1,13.248,90.5,3.053,3.053,0,0,1,10.191,93.552Zm24.457,0A3.057,3.057,0,1,1,37.7,90.5,3.053,3.053,0,0,1,34.648,93.552ZM32.61,80.3v-5.1h5.1l4,5.1Z" transform="translate(0 -64)" fill="red"/>
    </g>
  </g>
</svg>
