<svg id="_002-dumper" data-name="002-dumper" xmlns="http://www.w3.org/2000/svg" width="40" height="30" viewBox="0 0 40 30">
  <g id="Grupo_2178" data-name="Grupo 2178" transform="translate(0)">
    <g id="Grupo_2177" data-name="Grupo 2177">
      <path id="Trazado_1002" data-name="Trazado 1002" d="M67.337,320a3.333,3.333,0,1,0,3.333,3.333A3.332,3.332,0,0,0,67.337,320Z" transform="translate(-59.004 -300.002)" fill="red"/>
      <path id="Trazado_1003" data-name="Trazado 1003" d="M2.307,77.312l20.833,5a.778.778,0,0,0,.193.023.834.834,0,0,0,.787-.558l5.637-16.108h4.41a.833.833,0,0,0,0-1.667H.833a.832.832,0,0,0-.825.95L1.675,76.619A.834.834,0,0,0,2.307,77.312Zm16.64-9.947a.828.828,0,0,1,1.023.585l2.5,9.167a.834.834,0,1,1-1.608.438l-2.5-9.167A.834.834,0,0,1,18.946,67.365Zm-6.687,0a.834.834,0,0,1,1.037.558l2.5,8.333a.833.833,0,1,1-1.6.48l-2.5-8.333A.834.834,0,0,1,12.26,67.37Zm-6.628-.01a.833.833,0,0,1,1.01.607l1.667,6.667a.833.833,0,1,1-1.617.4L5.025,68.37A.832.832,0,0,1,5.632,67.36Z" transform="translate(0 -64.002)" fill="red"/>
      <path id="Trazado_1004" data-name="Trazado 1004" d="M56.19,117.57l-.743-3.715a5.806,5.806,0,0,0-4.1-4.442.824.824,0,0,0-1.018.525l-2.842,8.12L45.375,124.1l0,0a6.688,6.688,0,0,0-1.295,1.438,2.377,2.377,0,0,1-1.67.223l-17.931-4.3a.825.825,0,0,0-.567.065l-2.123,1.062a.834.834,0,0,0-.217,1.335l1.178,1.178a6.6,6.6,0,0,0-1.422,4.065,6.653,6.653,0,0,0,13.1,1.667H43.23a6.634,6.634,0,0,0,12.86,0h2.737A.834.834,0,0,0,59.66,130v-8.333A4.165,4.165,0,0,0,56.19,117.57ZM32.933,129.765c-.005.03-.007.048-.012.082,0,.005,0,.012,0,.017a4.988,4.988,0,1,1-8.182-4.463,4.885,4.885,0,0,1,.47-.385,5.1,5.1,0,0,1,.572-.31c.093-.047.18-.107.277-.148a4.927,4.927,0,0,1,.683-.212c.087-.022.167-.058.253-.077a4.922,4.922,0,0,1,1-.1,4.822,4.822,0,0,1,4.94,5.6ZM51.618,111.3a4.123,4.123,0,0,1,2.195,2.88l.663,3.317H49.45Zm2.968,18.588a4.975,4.975,0,0,1-9.86-.067v0a4.453,4.453,0,0,1-.067-.653,4.82,4.82,0,0,1,.172-1.233c.017-.063.04-.125.058-.187a5.287,5.287,0,0,1,.5-1.142,5.006,5.006,0,0,1,1.162-1.322s0,0,0,0a5.267,5.267,0,0,1,.67-.453c.035-.02.07-.038.1-.057a5.046,5.046,0,0,1,.612-.28c.117-.043.238-.077.36-.112.15-.043.3-.09.452-.12a4.827,4.827,0,0,1,.908-.093,5.006,5.006,0,0,1,5,5,4.931,4.931,0,0,1-.075.712S54.586,129.886,54.586,129.891Z" transform="translate(-19.66 -105.833)" fill="red"/>
      <path id="Trazado_1005" data-name="Trazado 1005" d="M344.671,320A3.333,3.333,0,1,0,348,323.335,3.332,3.332,0,0,0,344.671,320Z" transform="translate(-314.671 -300.002)" fill="red"/>
    </g>
  </g>
</svg>
