<svg id="_003-truck-1" data-name="003-truck-1" xmlns="http://www.w3.org/2000/svg" width="41.854" height="28.303" viewBox="0 0 41.854 28.303">
  <g id="Grupo_2180" data-name="Grupo 2180" transform="translate(31.59 22.483)">
    <g id="Grupo_2179" data-name="Grupo 2179">
      <path id="Trazado_1006" data-name="Trazado 1006" d="M365.587,337.157a1.555,1.555,0,1,0,1.555,1.555A1.545,1.545,0,0,0,365.587,337.157Zm0,2.222a.666.666,0,1,1,.666-.666A.654.654,0,0,1,365.587,339.379Z" transform="translate(-364.032 -337.157)" fill="#1cc928"/>
    </g>
  </g>
  <g id="Grupo_2182" data-name="Grupo 2182" transform="translate(11.596 22.483)">
    <g id="Grupo_2181" data-name="Grupo 2181">
      <path id="Trazado_1007" data-name="Trazado 1007" d="M135.187,337.157a1.555,1.555,0,1,0,1.555,1.555A1.545,1.545,0,0,0,135.187,337.157Zm0,2.222a.666.666,0,1,1,.666-.666A.654.654,0,0,1,135.187,339.379Z" transform="translate(-133.632 -337.157)" fill="#1cc928"/>
    </g>
  </g>
  <g id="Grupo_2184" data-name="Grupo 2184" transform="translate(4.932 22.483)">
    <g id="Grupo_2183" data-name="Grupo 2183">
      <path id="Trazado_1008" data-name="Trazado 1008" d="M58.387,337.157a1.555,1.555,0,1,0,1.555,1.555A1.545,1.545,0,0,0,58.387,337.157Zm0,2.222a.666.666,0,1,1,.666-.666A.654.654,0,0,1,58.387,339.379Z" transform="translate(-56.832 -337.157)" fill="#1cc928"/>
    </g>
  </g>
  <g id="Grupo_2186" data-name="Grupo 2186" transform="translate(30.257 10.042)">
    <g id="Grupo_2185" data-name="Grupo 2185">
      <path id="Trazado_1009" data-name="Trazado 1009" d="M350.227,193.8h-1.555v3.554h4.088Z" transform="translate(-348.672 -193.797)" fill="#1cc928"/>
    </g>
  </g>
  <g id="Grupo_2188" data-name="Grupo 2188" transform="translate(0 0)">
    <g id="Grupo_2187" data-name="Grupo 2187">
      <path id="Trazado_1010" data-name="Trazado 1010" d="M41.631,93.8l-6.665-8.886a.928.928,0,0,0-.711-.355H27.591a.891.891,0,0,0-.889.889v4H25.37a.427.427,0,0,0-.4.311l-1.911,5.776a.454.454,0,0,0,.4.578H25.37a.42.42,0,0,1,.444.444v3.554h-.889V97.448A.42.42,0,0,0,24.481,97H23.148a.42.42,0,0,0-.444.444v2.666h-.933V91.45l1.288-2.044a3.091,3.091,0,0,0-.089-3.421l-3.066-4.4a3.058,3.058,0,0,0-2.222-1.6L6.576,78.12a3.1,3.1,0,0,0-2.71.889.613.613,0,0,0-.133.178l-2.71,4.354a3.153,3.153,0,0,0,.444,3.865L4.8,90.694V95.67H.889A.891.891,0,0,0,0,96.559v2.222c0,.133.044.222.044.311V101a.891.891,0,0,0,.889.889H2.266v.222a4.214,4.214,0,0,0,7.553,2.577,4.214,4.214,0,0,0,7.553-2.577v-.178h2.71v1.288a.951.951,0,0,0,.755.933.88.88,0,0,0,1.022-.889v-1.333h4.887v1.333a.891.891,0,0,0,.889.889h1.822a4.246,4.246,0,0,0,7.464,0h4.043a.891.891,0,0,0,.889-.889V94.338A1.14,1.14,0,0,0,41.631,93.8ZM6.487,104.557a2.444,2.444,0,1,1,2.444-2.444A2.437,2.437,0,0,1,6.487,104.557Zm6.665,0a2.444,2.444,0,1,1,2.444-2.444A2.437,2.437,0,0,1,13.151,104.557Zm6.8-8.886H5.776V91.494l2.666,2.621a3.082,3.082,0,0,0,2.4,1.111h6.887a3.019,3.019,0,0,0,2.177-.889.155.155,0,0,0,.044-.089Zm9.864-.889a.444.444,0,0,1,0-.889h2.222a.444.444,0,0,1,0,.889Zm3.332,9.775a2.465,2.465,0,0,1-2.444-2.444v-.133c.044-.222.089-.489.133-.711a2.366,2.366,0,0,1,1.955-1.555c.089,0,.222-.044.311-.044a.659.659,0,0,1,.311.044,2.426,2.426,0,0,1,1.911,1.466,3.5,3.5,0,0,1,.178.889v.089A2.3,2.3,0,0,1,33.145,104.557Zm2.488-12.218a.53.53,0,0,1-.4.222H29.813a.42.42,0,0,1-.444-.444V87.673a.42.42,0,0,1,.444-.444h2.222a.548.548,0,0,1,.355.178l3.155,4.443A.484.484,0,0,1,35.633,92.338ZM40.032,97h-.889v5.332a.444.444,0,1,1-.889,0V96.559a.42.42,0,0,1,.444-.444h1.333a.444.444,0,1,1,0,.889Z" transform="translate(0 -78.075)" fill="#1cc928"/>
    </g>
  </g>
</svg>
