<svg xmlns="http://www.w3.org/2000/svg" width="33.995" height="32.999" viewBox="0 0 33.995 32.999">
  <g id="_001-forklift" data-name="001-forklift" transform="translate(0 -7.5)">
    <path id="Trazado_1012" data-name="Trazado 1012" d="M433.645,441.3h-4.506a5.167,5.167,0,0,1,0,1.992h4.506a1,1,0,1,0,0-1.992Z" transform="translate(-400.646 -404.997)" fill="red"/>
    <circle id="Elipse_33" data-name="Elipse 33" cx="3.2" cy="3.2" r="3.2" transform="translate(5.263 34.099)" fill="red"/>
    <path id="Trazado_1013" data-name="Trazado 1013" d="M26.6,7.5a1,1,0,0,0-1,1V20.8L21.112,10.54A5.43,5.43,0,0,0,16.464,7.5h-9.6A3.667,3.667,0,0,0,3.2,11.163V24.6A3.668,3.668,0,0,0,0,28.231v6.4a3.667,3.667,0,0,0,3.366,3.65,5.192,5.192,0,1,1,10.193.013H18.3a5.19,5.19,0,0,1,9.292-4.048V8.5A1,1,0,0,0,26.6,7.5ZM22.744,24.568,17.705,19.53l.8-.8A1,1,0,0,0,17.1,17.317l-1.508,1.508h0l-1.508,1.508a1,1,0,1,0,1.408,1.408l.8-.8,3.63,3.63H9.459V17.03a1,1,0,1,0-1.992,0v7.538H5.192V11.163A1.673,1.673,0,0,1,6.863,9.492h9.6a3.448,3.448,0,0,1,2.823,1.847l5.788,13.23H22.744Z" fill="red"/>
    <circle id="Elipse_34" data-name="Elipse 34" cx="3.2" cy="3.2" r="3.2" transform="translate(20.198 34.099)" fill="red"/>
  </g>
</svg>
