<svg xmlns="http://www.w3.org/2000/svg" width="40.844" height="32.338" viewBox="0 0 40.844 32.338">
  <g id="_002-truck" data-name="002-truck" transform="translate(0 -53.312)">
    <g id="Grupo_2208" data-name="Grupo 2208" transform="translate(3.4 77.139)">
      <g id="Grupo_2207" data-name="Grupo 2207">
        <path id="Trazado_1014" data-name="Trazado 1014" d="M46.876,352.012a4.256,4.256,0,1,0,4.252,4.252A4.262,4.262,0,0,0,46.876,352.012Zm0,6.8a2.553,2.553,0,1,1,2.553-2.553A2.56,2.56,0,0,1,46.876,358.816Z" transform="translate(-42.624 -352.012)" fill="#1cc928"/>
      </g>
    </g>
    <g id="Grupo_2210" data-name="Grupo 2210" transform="translate(28.926 77.139)">
      <g id="Grupo_2209" data-name="Grupo 2209">
        <path id="Trazado_1015" data-name="Trazado 1015" d="M366.876,352.012a4.256,4.256,0,1,0,4.252,4.252A4.262,4.262,0,0,0,366.876,352.012Zm0,6.8a2.553,2.553,0,1,1,2.553-2.553A2.56,2.56,0,0,1,366.876,358.816Z" transform="translate(-362.624 -352.012)" fill="#1cc928"/>
      </g>
    </g>
    <g id="Grupo_2212" data-name="Grupo 2212" transform="translate(13.603 80.545)">
      <g id="Grupo_2211" data-name="Grupo 2211">
        <path id="Trazado_1016" data-name="Trazado 1016" d="M171.968,394.943a.858.858,0,0,0-1.189.016.821.821,0,0,0-.255.6.858.858,0,0,0,.239.6.884.884,0,0,0,.614.255.778.778,0,0,0,.59-.255.821.821,0,0,0,.255-.6A.838.838,0,0,0,171.968,394.943Z" transform="translate(-170.524 -394.712)" fill="#1cc928"/>
      </g>
    </g>
    <g id="Grupo_2214" data-name="Grupo 2214" transform="translate(0 53.312)">
      <g id="Grupo_2213" data-name="Grupo 2213" transform="translate(0 0)">
        <path id="Trazado_1017" data-name="Trazado 1017" d="M40.373,69.585l-1.228-.614V63.219l1.22-.638a.851.851,0,0,0,.471-.758V59.414a.878.878,0,0,0-.247-.606,4.211,4.211,0,0,0-2.656-1.228l-3.215-3.063c-.63-.877-2.84-1.2-3.239-1.2H21.268a.854.854,0,0,0-.854.854V73.733H9.351a.85.85,0,1,0,0-1.7h-3.4a.854.854,0,0,0,0,1.707H2.547a.837.837,0,0,0-.822.646l-1.7,6.8a.862.862,0,0,0,.152.734.843.843,0,0,0,.67.327h3.4a.559.559,0,0,0,.112-.024,3.155,3.155,0,0,1-.112-.83,3.406,3.406,0,0,1,6.812,0,3.585,3.585,0,0,1-.112.83.559.559,0,0,0,.112.024H29.78a.559.559,0,0,0,.112-.024,3.155,3.155,0,0,1-.112-.83,3.406,3.406,0,0,1,6.812,0,3.585,3.585,0,0,1-.112.83.559.559,0,0,0,.112.024A4.255,4.255,0,0,0,40.844,78V70.343A.851.851,0,0,0,40.373,69.585Zm-5.5.75h-6.8a.855.855,0,0,1-.854-.854v-6.8a.854.854,0,0,1,1.707,0v5.959h5.959a.85.85,0,1,1-.008,1.7Z" transform="translate(0 -53.312)" fill="#1cc928"/>
      </g>
    </g>
  </g>
</svg>
