<svg xmlns="http://www.w3.org/2000/svg" width="116.64" height="129.5" viewBox="0 0 116.64 129.5">
  <g id="Grupo_2229" data-name="Grupo 2229" transform="translate(-282.796 -164.724)">
    <path id="Trazado_1018" data-name="Trazado 1018" d="M45,29.808h7.3L51.564,34H38.8l3.968-22.624h5.472ZM67.98,11.024a11.116,11.116,0,0,1,5.376,1.232,8.506,8.506,0,0,1,3.488,3.456,10.535,10.535,0,0,1,1.216,5.136,15.953,15.953,0,0,1-.256,2.72,13.435,13.435,0,0,1-2.256,5.552A11.842,11.842,0,0,1,71.2,32.88a12.754,12.754,0,0,1-5.872,1.344,11.476,11.476,0,0,1-5.456-1.216,8.309,8.309,0,0,1-3.488-3.424,10.624,10.624,0,0,1-1.2-5.152,17.076,17.076,0,0,1,.256-2.784,13.3,13.3,0,0,1,2.272-5.52,11.977,11.977,0,0,1,4.368-3.76A12.825,12.825,0,0,1,67.98,11.024Zm-.416,5.088a6.342,6.342,0,0,0-4.432,1.68,7.835,7.835,0,0,0-2.352,4.592,10.057,10.057,0,0,0-.16,1.6,4.69,4.69,0,0,0,5.12,5.12,6.268,6.268,0,0,0,4.4-1.7,7.862,7.862,0,0,0,2.352-4.544,9.927,9.927,0,0,0,.128-1.632,5.153,5.153,0,0,0-1.328-3.76A4.972,4.972,0,0,0,67.564,16.112Zm25.984-4.96a9.293,9.293,0,0,1,6.5,2.128,8.049,8.049,0,0,1,2.592,5.584h-5.76a3.59,3.59,0,0,0-1.44-1.936,4.732,4.732,0,0,0-2.72-.72,6.38,6.38,0,0,0-4.48,1.744,8.062,8.062,0,0,0-2.4,4.72,8.99,8.99,0,0,0-.16,1.76,4.757,4.757,0,0,0,1.36,3.664,5.6,5.6,0,0,0,3.952,1.264A6.548,6.548,0,0,0,94.6,28.288a7.325,7.325,0,0,0,2.624-3.056H90.316l.7-3.936h11.456l-.928,5.408a12.747,12.747,0,0,1-4.528,5.424,12.888,12.888,0,0,1-7.44,2.064,10.8,10.8,0,0,1-5.12-1.136,7.819,7.819,0,0,1-3.28-3.216,9.992,9.992,0,0,1-1.136-4.864,14.463,14.463,0,0,1,.224-2.56,14.008,14.008,0,0,1,2.416-5.824,12.867,12.867,0,0,1,4.656-4A13.434,13.434,0,0,1,93.548,11.152Zm19.232.224L108.812,34H103.34l3.968-22.624Zm14.144-.224a9.506,9.506,0,0,1,6.752,2.272,8.406,8.406,0,0,1,2.56,6.144h-5.76a4.13,4.13,0,0,0-1.52-2.464,4.83,4.83,0,0,0-3.024-.9,5.757,5.757,0,0,0-4.16,1.76,8.4,8.4,0,0,0-2.3,4.7,10.182,10.182,0,0,0-.16,1.632,4.984,4.984,0,0,0,1.184,3.52,4.147,4.147,0,0,0,3.2,1.28,6.3,6.3,0,0,0,3.312-.9,6.768,6.768,0,0,0,2.384-2.432h5.792a13.438,13.438,0,0,1-4.768,6.128,12.682,12.682,0,0,1-7.52,2.288,10.321,10.321,0,0,1-4.96-1.12,7.586,7.586,0,0,1-3.168-3.152,9.85,9.85,0,0,1-1.088-4.72,13.931,13.931,0,0,1,.224-2.528,14.686,14.686,0,0,1,2.4-5.984,12.682,12.682,0,0,1,10.624-5.536Zm27.2,17.28a6.16,6.16,0,0,1-1.392,2.912,7.736,7.736,0,0,1-2.928,2.1,10.532,10.532,0,0,1-4.192.784,8.931,8.931,0,0,1-6.08-1.9,6.571,6.571,0,0,1-2.208-5.136h5.824a2.574,2.574,0,0,0,.576,2.016,2.51,2.51,0,0,0,1.952.736,2.564,2.564,0,0,0,1.872-.7,2.438,2.438,0,0,0,.72-1.824,2.019,2.019,0,0,0-.48-1.36,4.1,4.1,0,0,0-1.2-.944q-.72-.384-2.064-.928a24.058,24.058,0,0,1-2.96-1.392,5.881,5.881,0,0,1-1.936-1.84,5.2,5.2,0,0,1-.8-2.976,8.953,8.953,0,0,1,.128-1.536,5.719,5.719,0,0,1,2.784-3.952,10.375,10.375,0,0,1,5.6-1.456q4,0,6,1.808a6.583,6.583,0,0,1,2.1,4.912h-5.888a2.341,2.341,0,0,0-.528-1.776,2.229,2.229,0,0,0-1.744-.656,2.579,2.579,0,0,0-1.744.592,2.1,2.1,0,0,0-.688,1.68,1.85,1.85,0,0,0,.464,1.264,3.785,3.785,0,0,0,1.168.88q.7.352,2.016.9a24.057,24.057,0,0,1,2.96,1.392,6.187,6.187,0,0,1,1.968,1.84,5.11,5.11,0,0,1,.832,3.008A9.523,9.523,0,0,1,154.124,28.432Z" transform="translate(244 260)" fill="#fff"/>
    <g id="sweep" transform="translate(299.591 164.724)">
      <g id="Grupo_2057" data-name="Grupo 2057" transform="translate(25.425 45.576)">
        <circle id="Elipse_6" data-name="Elipse 6" cx="2.271" cy="2.271" r="2.271" transform="translate(0 27.406)" fill="#ffc400"/>
        <circle id="Elipse_7" data-name="Elipse 7" cx="2.271" cy="2.271" r="2.271" transform="translate(0 18.17)" fill="#ffc400"/>
        <circle id="Elipse_8" data-name="Elipse 8" cx="2.271" cy="2.271" r="2.271" transform="translate(0 9.085)" fill="#ffc400"/>
        <circle id="Elipse_9" data-name="Elipse 9" cx="2.271" cy="2.271" r="2.271" fill="#ffc400"/>
      </g>
      <g id="Grupo_2058" data-name="Grupo 2058" transform="translate(0)">
        <path id="Trazado_983" data-name="Trazado 983" d="M82.433,38.762A38.766,38.766,0,0,1,43.823,77.524a2.271,2.271,0,0,1,0-4.542,34.22,34.22,0,1,0-32.342-44.94,2.27,2.27,0,0,1-4.315-1.408A38.583,38.583,0,0,1,82.433,38.762Z" transform="translate(-7.042)" fill="#17ace8"/>
        <path id="Trazado_984" data-name="Trazado 984" d="M121.839,90.526a29.583,29.583,0,0,1-29.526,29.526,2.271,2.271,0,1,1,0-4.542A24.983,24.983,0,1,0,68.6,82.622a2.275,2.275,0,0,1-2.862,1.453,2.343,2.343,0,0,1-1.454-2.907,29.539,29.539,0,0,1,57.552,9.358Z" transform="translate(-55.533 -51.764)" fill="#17ace8"/>
        <path id="Trazado_985" data-name="Trazado 985" d="M161,141.441a20.472,20.472,0,0,1-20.441,20.441,2.271,2.271,0,1,1,0-4.542A15.9,15.9,0,1,0,125.481,136.4a2.274,2.274,0,0,1-2.862,1.453,2.239,2.239,0,0,1-1.454-2.862A20.441,20.441,0,0,1,161,141.441Z" transform="translate(-103.781 -102.679)" fill="#17ace8"/>
        <path id="Trazado_986" data-name="Trazado 986" d="M200.285,192.356a11.36,11.36,0,0,1-11.356,11.356,2.271,2.271,0,1,1,0-4.542,6.814,6.814,0,0,0,0-13.627,6.734,6.734,0,0,0-6.45,4.679,2.281,2.281,0,0,1-2.907,1.408,2.25,2.25,0,0,1-1.408-2.862,11.351,11.351,0,0,1,22.121,3.589Z" transform="translate(-152.148 -153.594)" fill="#17ace8"/>
      </g>
      <g id="Grupo_2059" data-name="Grupo 2059" transform="translate(36.781)">
        <path id="Trazado_987" data-name="Trazado 987" d="M270.4,141.441a20.472,20.472,0,0,1-20.441,20.441v-4.542a15.9,15.9,0,0,0,0-31.8V121A20.472,20.472,0,0,1,270.4,141.441Z" transform="translate(-249.958 -102.679)" fill="#1689fc"/>
        <path id="Trazado_988" data-name="Trazado 988" d="M279.484,90.526a29.583,29.583,0,0,1-29.526,29.526v-4.542a24.983,24.983,0,0,0,0-49.967V61A29.583,29.583,0,0,1,279.484,90.526Z" transform="translate(-249.958 -51.764)" fill="#1689fc"/>
        <path id="Trazado_989" data-name="Trazado 989" d="M288.569,38.762a38.766,38.766,0,0,1-38.611,38.762V72.981a34.22,34.22,0,0,0,0-68.439V0A38.766,38.766,0,0,1,288.569,38.762Z" transform="translate(-249.958)" fill="#1689fc"/>
        <path id="Trazado_990" data-name="Trazado 990" d="M261.314,192.356a11.36,11.36,0,0,1-11.356,11.356V199.17a6.814,6.814,0,1,0,0-13.627V181A11.36,11.36,0,0,1,261.314,192.356Z" transform="translate(-249.958 -153.594)" fill="#1689fc"/>
      </g>
    </g>
  </g>
</svg>
