<svg width="330" height="93" viewBox="0 0 330 93" fill="none" xmlns="http://www.w3.org/2000/svg">
<path d="M196.837 12.9528C197.806 8.31924 201.891 5 206.625 5H288.374C294.822 5 299.585 11.0133 298.108 17.2904L282.814 82.2904C281.751 86.8076 277.72 90 273.08 90H198.5L0.5 81.5H182.5L196.837 12.9528Z" fill="#D94B0E"/>
<path d="M233.994 61.124C233.994 62.2547 233.747 63.138 233.252 63.774C232.793 64.41 231.998 64.9223 230.867 65.311C229.242 65.841 227.528 66.2473 225.726 66.53C223.924 66.8127 221.963 66.954 219.843 66.954C216.804 66.954 214.031 66.477 211.522 65.523C209.013 64.5337 206.858 63.1733 205.056 61.442C203.254 59.6753 201.841 57.5907 200.816 55.188C199.827 52.75 199.332 50.0647 199.332 47.132C199.332 44.1287 199.844 41.4257 200.869 39.023C201.929 36.585 203.36 34.518 205.162 32.822C206.999 31.126 209.155 29.8187 211.628 28.9C214.101 27.9813 216.787 27.522 219.684 27.522C222.157 27.522 224.366 27.8223 226.309 28.423C228.252 28.9883 229.86 29.7303 231.132 30.649C231.839 31.1437 232.28 31.6383 232.457 32.133C232.669 32.5923 232.775 33.034 232.775 33.458C232.775 34.3767 232.492 35.1363 231.927 35.737C231.362 36.3023 230.655 36.585 229.807 36.585C229.489 36.585 229.136 36.532 228.747 36.426C228.358 36.32 227.934 36.108 227.475 35.79C226.592 35.1893 225.496 34.6417 224.189 34.147C222.917 33.6523 221.433 33.405 219.737 33.405C217.758 33.405 215.956 33.7583 214.331 34.465C212.741 35.1717 211.381 36.1433 210.25 37.38C209.119 38.6167 208.236 40.0653 207.6 41.726C206.999 43.3867 206.699 45.1887 206.699 47.132C206.699 49.146 206.999 51.001 207.6 52.697C208.236 54.3577 209.119 55.8063 210.25 57.043C211.416 58.2797 212.812 59.2513 214.437 59.958C216.098 60.6293 217.97 60.965 220.055 60.965C222.917 60.965 225.408 60.5233 227.528 59.64V50.1H222.228C221.592 50.1 221.062 50.0117 220.638 49.835C220.249 49.623 219.931 49.3757 219.684 49.093C219.472 48.775 219.331 48.457 219.26 48.139C219.189 47.821 219.154 47.556 219.154 47.344C219.154 47.132 219.189 46.867 219.26 46.549C219.331 46.231 219.472 45.9307 219.684 45.648C219.931 45.33 220.249 45.0827 220.638 44.906C221.062 44.694 221.592 44.588 222.228 44.588H230.231C232.74 44.588 233.994 45.8423 233.994 48.351V61.124ZM280.657 47.132C280.657 50.0647 280.145 52.75 279.12 55.188C278.131 57.5907 276.735 59.6753 274.933 61.442C273.131 63.1733 270.994 64.5337 268.52 65.523C266.047 66.477 263.344 66.954 260.411 66.954C257.514 66.954 254.829 66.477 252.355 65.523C249.917 64.5337 247.797 63.1733 245.995 61.442C244.229 59.6753 242.833 57.5907 241.808 55.188C240.819 52.75 240.324 50.0647 240.324 47.132C240.324 44.1287 240.819 41.4257 241.808 39.023C242.833 36.585 244.229 34.518 245.995 32.822C247.797 31.126 249.917 29.8187 252.355 28.9C254.829 27.9813 257.514 27.522 260.411 27.522C263.344 27.522 266.047 27.9813 268.52 28.9C270.994 29.8187 273.131 31.126 274.933 32.822C276.735 34.518 278.131 36.585 279.12 39.023C280.145 41.4257 280.657 44.1287 280.657 47.132ZM273.396 47.132C273.396 45.1887 273.078 43.3867 272.442 41.726C271.842 40.0653 270.976 38.6167 269.845 37.38C268.715 36.1433 267.354 35.1717 265.764 34.465C264.174 33.7583 262.408 33.405 260.464 33.405C258.521 33.405 256.754 33.7583 255.164 34.465C253.61 35.1717 252.267 36.1433 251.136 37.38C250.006 38.6167 249.122 40.0653 248.486 41.726C247.886 43.3867 247.585 45.1887 247.585 47.132C247.585 49.146 247.886 51.001 248.486 52.697C249.122 54.3577 250.006 55.8063 251.136 57.043C252.302 58.2797 253.663 59.2513 255.217 59.958C256.807 60.6293 258.556 60.965 260.464 60.965C262.372 60.965 264.121 60.6293 265.711 59.958C267.301 59.2513 268.662 58.2797 269.792 57.043C270.958 55.8063 271.842 54.3577 272.442 52.697C273.078 51.001 273.396 49.146 273.396 47.132Z" fill="white"/>
<path d="M67.792 22.024C68.752 22.024 69.52 22.168 70.096 22.456C70.72 22.744 71.176 23.104 71.464 23.536C71.8 23.968 72.016 24.424 72.112 24.904C72.208 25.336 72.256 25.696 72.256 25.984C72.256 26.272 72.208 26.656 72.112 27.136C72.016 27.568 71.8 28 71.464 28.432C71.176 28.864 70.72 29.224 70.096 29.512C69.52 29.8 68.752 29.944 67.792 29.944H55.984V68.536C55.984 69.64 55.816 70.528 55.48 71.2C55.144 71.824 54.736 72.328 54.256 72.712C53.824 73.096 53.344 73.336 52.816 73.432C52.288 73.576 51.832 73.648 51.448 73.648C51.064 73.648 50.608 73.576 50.08 73.432C49.552 73.336 49.048 73.096 48.568 72.712C48.136 72.328 47.752 71.824 47.416 71.2C47.08 70.528 46.912 69.64 46.912 68.536V29.944H35.104C34.144 29.944 33.352 29.8 32.728 29.512C32.152 29.224 31.696 28.864 31.36 28.432C31.072 28 30.88 27.568 30.784 27.136C30.688 26.656 30.64 26.272 30.64 25.984C30.64 25.696 30.688 25.336 30.784 24.904C30.88 24.424 31.072 23.968 31.36 23.536C31.696 23.104 32.152 22.744 32.728 22.456C33.352 22.168 34.144 22.024 35.104 22.024H67.792ZM132.546 68.608C132.546 69.712 132.378 70.6 132.042 71.272C131.706 71.896 131.298 72.4 130.818 72.784C130.338 73.12 129.834 73.336 129.306 73.432C128.826 73.576 128.418 73.648 128.082 73.648C127.698 73.648 127.242 73.576 126.714 73.432C126.234 73.336 125.754 73.12 125.274 72.784C124.794 72.4 124.386 71.896 124.05 71.272C123.714 70.6 123.546 69.712 123.546 68.608V39.448H123.402L110.154 69.4C109.338 71.224 108.45 72.4 107.49 72.928C106.53 73.408 105.642 73.648 104.826 73.648C103.962 73.648 103.05 73.408 102.09 72.928C101.13 72.4 100.242 71.224 99.4259 69.4L86.3939 39.592H86.1779V68.824C86.1779 69.832 86.0099 70.672 85.6739 71.344C85.3859 71.968 85.0019 72.448 84.5219 72.784C84.0899 73.12 83.6099 73.336 83.0819 73.432C82.6019 73.576 82.1939 73.648 81.8579 73.648C81.4739 73.648 81.0419 73.576 80.5619 73.432C80.0819 73.336 79.6019 73.12 79.1219 72.784C78.6899 72.448 78.3059 71.968 77.9699 71.344C77.6819 70.672 77.5379 69.832 77.5379 68.824V27.64C77.5379 26.296 77.7299 25.216 78.1139 24.4C78.5459 23.584 79.0499 22.96 79.6259 22.528C80.2499 22.048 80.8739 21.736 81.4979 21.592C82.1699 21.448 82.7699 21.376 83.2979 21.376C83.7299 21.376 84.2099 21.448 84.7379 21.592C85.2659 21.688 85.7939 21.928 86.3219 22.312C86.8979 22.648 87.4499 23.176 87.9779 23.896C88.5539 24.568 89.1059 25.504 89.6339 26.704L105.042 62.344H105.186L120.666 26.704C121.194 25.504 121.722 24.568 122.25 23.896C122.826 23.176 123.378 22.648 123.906 22.312C124.482 21.928 125.01 21.688 125.49 21.592C126.018 21.448 126.498 21.376 126.93 21.376C127.41 21.376 127.962 21.448 128.586 21.592C129.258 21.736 129.882 22.048 130.458 22.528C131.034 22.96 131.514 23.584 131.898 24.4C132.33 25.216 132.546 26.296 132.546 27.64V68.608ZM148.956 63.136C150.204 64.24 151.572 65.104 153.06 65.728C154.548 66.304 156.06 66.592 157.596 66.592C158.652 66.592 159.732 66.472 160.836 66.232C161.94 65.944 162.924 65.488 163.788 64.864C164.7 64.24 165.42 63.472 165.948 62.56C166.524 61.6 166.812 60.424 166.812 59.032C166.812 57.688 166.5 56.584 165.876 55.72C165.252 54.808 164.412 54.04 163.356 53.416C162.3 52.744 161.052 52.168 159.612 51.688C158.172 51.208 156.66 50.704 155.076 50.176C153.54 49.696 152.004 49.12 150.468 48.448C148.932 47.776 147.54 46.888 146.292 45.784C145.092 44.68 144.108 43.336 143.34 41.752C142.572 40.12 142.188 38.104 142.188 35.704C142.188 33.112 142.716 30.88 143.772 29.008C144.876 27.136 146.292 25.6 148.02 24.4C149.796 23.152 151.788 22.24 153.996 21.664C156.204 21.04 158.46 20.728 160.764 20.728C162.828 20.728 164.844 21.016 166.812 21.592C168.828 22.12 170.556 22.936 171.996 24.04C172.908 24.712 173.508 25.36 173.796 25.984C174.084 26.608 174.228 27.232 174.228 27.856C174.228 28.96 173.844 29.896 173.076 30.664C172.356 31.432 171.42 31.816 170.268 31.816C169.884 31.816 169.476 31.768 169.044 31.672C168.612 31.528 168.012 31.192 167.244 30.664C165.948 29.752 164.724 29.128 163.572 28.792C162.42 28.456 161.364 28.288 160.404 28.288C159.348 28.288 158.292 28.432 157.236 28.72C156.18 28.96 155.22 29.368 154.356 29.944C153.492 30.472 152.772 31.192 152.196 32.104C151.668 32.968 151.404 34.024 151.404 35.272C151.404 36.424 151.644 37.408 152.124 38.224C152.604 39.04 153.252 39.736 154.068 40.312C154.932 40.888 155.964 41.392 157.164 41.824C158.364 42.256 159.684 42.688 161.124 43.12C162.756 43.648 164.436 44.248 166.164 44.92C167.94 45.592 169.548 46.48 170.988 47.584C172.476 48.688 173.676 50.08 174.588 51.76C175.548 53.44 176.028 55.528 176.028 58.024C176.028 60.76 175.524 63.16 174.516 65.224C173.508 67.24 172.164 68.92 170.484 70.264C168.804 71.608 166.836 72.616 164.58 73.288C162.324 73.96 159.948 74.296 157.452 74.296C154.812 74.296 152.244 73.912 149.748 73.144C147.3 72.424 145.212 71.296 143.484 69.76C142.668 69.088 142.116 68.44 141.828 67.816C141.588 67.144 141.468 66.544 141.468 66.016C141.468 64.864 141.852 63.88 142.62 63.064C143.436 62.2 144.468 61.768 145.716 61.768C146.196 61.768 146.7 61.864 147.228 62.056C147.756 62.248 148.332 62.608 148.956 63.136Z" fill="white"/>
<path d="M70.096 22.456L69.6488 23.3504L69.6628 23.3574L69.6769 23.364L70.096 22.456ZM71.464 23.536L70.632 24.0907L70.6522 24.1211L70.6746 24.1499L71.464 23.536ZM72.112 24.904L71.1314 25.1001L71.1335 25.1105L71.1358 25.1209L72.112 24.904ZM72.112 27.136L73.0882 27.3529L73.0905 27.3425L73.0926 27.3321L72.112 27.136ZM71.464 28.432L70.6746 27.8181L70.6522 27.8469L70.632 27.8773L71.464 28.432ZM70.096 29.512L69.6769 28.604L69.6628 28.6106L69.6488 28.6176L70.096 29.512ZM55.984 29.944V28.944H54.984V29.944H55.984ZM55.48 71.2L56.3605 71.6741L56.3677 71.6608L56.3744 71.6472L55.48 71.2ZM54.256 72.712L53.6313 71.9311L53.611 71.9473L53.5916 71.9646L54.256 72.712ZM52.816 73.432L52.6371 72.4481L52.5946 72.4559L52.5529 72.4672L52.816 73.432ZM50.08 73.432L50.3431 72.4672L50.3014 72.4559L50.2589 72.4481L50.08 73.432ZM48.568 72.712L47.9036 73.4594L47.923 73.4767L47.9433 73.4929L48.568 72.712ZM47.416 71.2L46.5216 71.6472L46.5283 71.6608L46.5355 71.6741L47.416 71.2ZM46.912 29.944H47.912V28.944H46.912V29.944ZM32.728 29.512L32.2808 30.4064L32.2948 30.4134L32.3089 30.42L32.728 29.512ZM31.36 28.432L30.5279 28.9867L30.5482 29.0171L30.5706 29.0459L31.36 28.432ZM30.784 27.136L29.8034 27.3321L29.8055 27.3425L29.8078 27.3529L30.784 27.136ZM30.784 24.904L31.7602 25.1209L31.7625 25.1105L31.7646 25.1001L30.784 24.904ZM31.36 23.536L30.5706 22.9221L30.5482 22.9509L30.5279 22.9813L31.36 23.536ZM32.728 22.456L32.3089 21.548L32.2948 21.5546L32.2808 21.5616L32.728 22.456ZM67.792 23.024C68.6667 23.024 69.263 23.1575 69.6488 23.3504L70.5432 21.5616C69.777 21.1785 68.8373 21.024 67.792 21.024V23.024ZM69.6769 23.364C70.1862 23.599 70.4745 23.8545 70.632 24.0907L72.2961 22.9813C71.8775 22.3535 71.2538 21.889 70.5151 21.548L69.6769 23.364ZM70.6746 24.1499C70.9267 24.474 71.0693 24.7895 71.1314 25.1001L73.0926 24.7079C72.9627 24.0585 72.6733 23.462 72.2534 22.9221L70.6746 24.1499ZM71.1358 25.1209C71.2235 25.5153 71.256 25.7968 71.256 25.984H73.256C73.256 25.5952 73.1925 25.1567 73.0882 24.6871L71.1358 25.1209ZM71.256 25.984C71.256 26.1762 71.2221 26.4864 71.1314 26.9399L73.0926 27.3321C73.1939 26.8256 73.256 26.3678 73.256 25.984H71.256ZM71.1358 26.9191C71.0786 27.1765 70.9408 27.4759 70.6746 27.8181L72.2534 29.0459C72.6592 28.5241 72.9534 27.9595 73.0882 27.3529L71.1358 26.9191ZM70.632 27.8773C70.4745 28.1135 70.1862 28.369 69.6769 28.604L70.5151 30.42C71.2538 30.079 71.8775 29.6145 72.2961 28.9867L70.632 27.8773ZM69.6488 28.6176C69.263 28.8105 68.6667 28.944 67.792 28.944V30.944C68.8373 30.944 69.777 30.7895 70.5432 30.4064L69.6488 28.6176ZM67.792 28.944H55.984V30.944H67.792V28.944ZM54.984 29.944V68.536H56.984V29.944H54.984ZM54.984 68.536C54.984 69.552 54.8273 70.2694 54.5856 70.7528L56.3744 71.6472C56.8047 70.7866 56.984 69.728 56.984 68.536H54.984ZM54.5995 70.7259C54.3176 71.2494 53.9914 71.643 53.6313 71.9311L54.8807 73.4929C55.4806 73.013 55.9704 72.3986 56.3605 71.6741L54.5995 70.7259ZM53.5916 71.9646C53.2858 72.2365 52.9708 72.3875 52.6371 72.4481L52.9949 74.4159C53.7172 74.2845 54.3622 73.9555 54.9204 73.4594L53.5916 71.9646ZM52.5529 72.4672C52.0775 72.5969 51.7143 72.648 51.448 72.648V74.648C51.9497 74.648 52.4985 74.5551 53.0791 74.3968L52.5529 72.4672ZM51.448 72.648C51.1817 72.648 50.8185 72.5969 50.3431 72.4672L49.8169 74.3968C50.3975 74.5551 50.9463 74.648 51.448 74.648V72.648ZM50.2589 72.4481C49.9164 72.3859 49.5622 72.2268 49.1927 71.9311L47.9433 73.4929C48.5338 73.9652 49.1876 74.2861 49.9011 74.4159L50.2589 72.4481ZM49.2324 71.9646C48.9051 71.6737 48.5891 71.2694 48.2965 70.7259L46.5355 71.6741C46.9149 72.3786 47.3669 72.9823 47.9036 73.4594L49.2324 71.9646ZM48.3104 70.7528C48.0687 70.2694 47.912 69.552 47.912 68.536H45.912C45.912 69.728 46.0913 70.7866 46.5216 71.6472L48.3104 70.7528ZM47.912 68.536V29.944H45.912V68.536H47.912ZM46.912 28.944H35.104V30.944H46.912V28.944ZM35.104 28.944C34.235 28.944 33.5984 28.8123 33.1471 28.604L32.3089 30.42C33.1056 30.7877 34.053 30.944 35.104 30.944V28.944ZM33.1752 28.6176C32.7093 28.3846 32.3789 28.1131 32.1494 27.8181L30.5706 29.0459C31.0131 29.6149 31.5947 30.0634 32.2808 30.4064L33.1752 28.6176ZM32.1921 27.8773C31.9609 27.5306 31.8252 27.2116 31.7602 26.9191L29.8078 27.3529C29.9348 27.9244 30.1831 28.4694 30.5279 28.9867L32.1921 27.8773ZM31.7646 26.9399C31.6739 26.4864 31.64 26.1762 31.64 25.984H29.64C29.64 26.3678 29.7021 26.8256 29.8034 27.3321L31.7646 26.9399ZM31.64 25.984C31.64 25.7968 31.6725 25.5153 31.7602 25.1209L29.8078 24.6871C29.7035 25.1567 29.64 25.5952 29.64 25.984H31.64ZM31.7646 25.1001C31.8334 24.7558 31.972 24.4207 32.1921 24.0907L30.5279 22.9813C30.172 23.5153 29.9266 24.0922 29.8034 24.7079L31.7646 25.1001ZM32.1494 24.1499C32.3789 23.8549 32.7093 23.5834 33.1752 23.3504L32.2808 21.5616C31.5947 21.9046 31.0131 22.3531 30.5706 22.9221L32.1494 24.1499ZM33.1471 23.364C33.5984 23.1557 34.235 23.024 35.104 23.024V21.024C34.053 21.024 33.1056 21.1803 32.3089 21.548L33.1471 23.364ZM35.104 23.024H67.792V21.024H35.104V23.024ZM132.042 71.272L132.922 71.7461L132.93 71.7328L132.936 71.7192L132.042 71.272ZM130.818 72.784L131.391 73.6032L131.418 73.5849L131.443 73.5649L130.818 72.784ZM129.306 73.432L129.127 72.4481L129.072 72.4581L129.019 72.4742L129.306 73.432ZM126.714 73.432L126.977 72.4672L126.944 72.4582L126.91 72.4514L126.714 73.432ZM125.274 72.784L124.649 73.5649L124.674 73.5849L124.7 73.6032L125.274 72.784ZM124.05 71.272L123.155 71.7192L123.162 71.7328L123.169 71.7461L124.05 71.272ZM123.546 39.448H124.546V38.448H123.546V39.448ZM123.402 39.448V38.448H122.751L122.487 39.0435L123.402 39.448ZM110.154 69.4L111.067 69.8084L111.068 69.8045L110.154 69.4ZM107.49 72.928L107.937 73.8224L107.955 73.8137L107.972 73.8042L107.49 72.928ZM102.09 72.928L101.608 73.8042L101.625 73.8137L101.643 73.8224L102.09 72.928ZM99.4259 69.4L98.5096 69.8006L98.5131 69.8084L99.4259 69.4ZM86.3939 39.592L87.3101 39.1914L87.0481 38.592H86.3939V39.592ZM86.1779 39.592V38.592H85.1779V39.592H86.1779ZM85.6739 71.344L84.7794 70.8968L84.7725 70.9108L84.7659 70.9249L85.6739 71.344ZM84.5219 72.784L83.9484 71.9648L83.9278 71.9792L83.9079 71.9946L84.5219 72.784ZM83.0819 73.432L82.903 72.4481L82.848 72.4581L82.7945 72.4742L83.0819 73.432ZM80.5619 73.432L80.8492 72.4742L80.8041 72.4606L80.758 72.4514L80.5619 73.432ZM79.1219 72.784L78.5079 73.5733L78.5278 73.5888L78.5484 73.6032L79.1219 72.784ZM77.9699 71.344L77.0507 71.7379L77.0683 71.7789L77.0894 71.8181L77.9699 71.344ZM78.1139 24.4L77.2301 23.9321L77.2191 23.9529L77.2091 23.9742L78.1139 24.4ZM79.6259 22.528L80.2259 23.3281L80.2356 23.3206L79.6259 22.528ZM81.4979 21.592L81.2883 20.6142L81.2807 20.6158L81.273 20.6176L81.4979 21.592ZM84.7379 21.592L84.4748 22.5568L84.5165 22.5681L84.559 22.5759L84.7379 21.592ZM86.3219 22.312L85.7337 23.1207L85.7745 23.1504L85.818 23.1758L86.3219 22.312ZM87.9779 23.896L87.1715 24.4874L87.1939 24.518L87.2186 24.5468L87.9779 23.896ZM89.6339 26.704L90.5518 26.3072L90.5492 26.3013L89.6339 26.704ZM105.042 62.344L104.124 62.7408L104.385 63.344H105.042V62.344ZM105.186 62.344V63.344H105.842L106.103 62.7424L105.186 62.344ZM120.666 26.704L119.751 26.3013L119.749 26.3056L120.666 26.704ZM122.25 23.896L121.469 23.2713L121.464 23.2782L122.25 23.896ZM123.906 22.312L124.443 23.1557L124.452 23.1499L124.461 23.144L123.906 22.312ZM125.49 21.592L125.686 22.5726L125.72 22.5658L125.753 22.5568L125.49 21.592ZM128.586 21.592L128.361 22.5664L128.369 22.5682L128.376 22.5698L128.586 21.592ZM130.458 22.528L129.818 23.2962L129.837 23.3126L129.858 23.328L130.458 22.528ZM131.898 24.4L130.993 24.8258L131.003 24.8471L131.014 24.8679L131.898 24.4ZM131.546 68.608C131.546 69.624 131.389 70.3414 131.147 70.8248L132.936 71.7192C133.367 70.8586 133.546 69.8 133.546 68.608H131.546ZM131.161 70.7979C130.88 71.3214 130.553 71.715 130.193 72.0031L131.443 73.5649C132.042 73.085 132.532 72.4706 132.922 71.7461L131.161 70.7979ZM130.244 71.9648C129.872 72.2258 129.501 72.3802 129.127 72.4481L129.485 74.4159C130.167 74.2918 130.804 74.0142 131.391 73.6032L130.244 71.9648ZM129.019 72.4742C128.591 72.6025 128.285 72.648 128.082 72.648V74.648C128.55 74.648 129.061 74.5495 129.593 74.3898L129.019 72.4742ZM128.082 72.648C127.816 72.648 127.452 72.5969 126.977 72.4672L126.451 74.3968C127.031 74.5551 127.58 74.648 128.082 74.648V72.648ZM126.91 72.4514C126.59 72.3873 126.236 72.2368 125.847 71.9648L124.7 73.6032C125.272 74.0032 125.878 74.2847 126.518 74.4126L126.91 72.4514ZM125.899 72.0031C125.538 71.715 125.212 71.3214 124.93 70.7979L123.169 71.7461C123.559 72.4706 124.049 73.085 124.649 73.5649L125.899 72.0031ZM124.944 70.8248C124.703 70.3414 124.546 69.624 124.546 68.608H122.546C122.546 69.8 122.725 70.8586 123.155 71.7192L124.944 70.8248ZM124.546 68.608V39.448H122.546V68.608H124.546ZM123.546 38.448H123.402V40.448H123.546V38.448ZM122.487 39.0435L109.239 68.9955L111.068 69.8045L124.316 39.8525L122.487 39.0435ZM109.241 68.9916C108.45 70.7602 107.675 71.6851 107.008 72.0518L107.972 73.8042C109.225 73.1149 110.226 71.6878 111.067 69.8084L109.241 68.9916ZM107.043 72.0336C106.179 72.4652 105.446 72.648 104.826 72.648V74.648C105.838 74.648 106.88 74.3508 107.937 73.8224L107.043 72.0336ZM104.826 72.648C104.15 72.648 103.391 72.4606 102.537 72.0336L101.643 73.8224C102.709 74.3554 103.774 74.648 104.826 74.648V72.648ZM102.572 72.0518C101.905 71.6851 101.13 70.7602 100.339 68.9916L98.5131 69.8084C99.3539 71.6878 100.355 73.1149 101.608 73.8042L102.572 72.0518ZM100.342 68.9994L87.3101 39.1914L85.4776 39.9926L98.5096 69.8006L100.342 68.9994ZM86.3939 38.592H86.1779V40.592H86.3939V38.592ZM85.1779 39.592V68.824H87.1779V39.592H85.1779ZM85.1779 68.824C85.1779 69.7273 85.0265 70.4027 84.7794 70.8968L86.5683 71.7912C86.9933 70.9413 87.1779 69.9366 87.1779 68.824H85.1779ZM84.7659 70.9249C84.5391 71.4163 84.2601 71.7466 83.9484 71.9648L85.0953 73.6032C85.7436 73.1494 86.2326 72.5197 86.5818 71.7631L84.7659 70.9249ZM83.9079 71.9946C83.6005 72.2337 83.2692 72.3815 82.903 72.4481L83.2608 74.4159C83.9506 74.2905 84.5792 74.0063 85.1358 73.5733L83.9079 71.9946ZM82.7945 72.4742C82.3667 72.6025 82.0614 72.648 81.8579 72.648V74.648C82.3264 74.648 82.837 74.5495 83.3692 74.3898L82.7945 72.4742ZM81.8579 72.648C81.5956 72.648 81.2627 72.5982 80.8492 72.4742L80.2745 74.3898C80.821 74.5538 81.3521 74.648 81.8579 74.648V72.648ZM80.758 72.4514C80.4376 72.3873 80.084 72.2368 79.6953 71.9648L78.5484 73.6032C79.1198 74.0032 79.7262 74.2847 80.3658 74.4126L80.758 72.4514ZM79.7358 71.9946C79.4409 71.7653 79.139 71.406 78.8503 70.8699L77.0894 71.8181C77.4727 72.53 77.9389 73.1307 78.5079 73.5733L79.7358 71.9946ZM78.889 70.9501C78.6705 70.4402 78.5379 69.7446 78.5379 68.824H76.5379C76.5379 69.9194 76.6933 70.9038 77.0507 71.7379L78.889 70.9501ZM78.5379 68.824V27.64H76.5379V68.824H78.5379ZM78.5379 27.64C78.5379 26.3772 78.7204 25.4596 79.0187 24.8258L77.2091 23.9742C76.7393 24.9724 76.5379 26.2148 76.5379 27.64H78.5379ZM78.9977 24.8679C79.3795 24.1467 79.7962 23.6503 80.2259 23.328L79.0259 21.728C78.3036 22.2697 77.7123 23.0213 77.2301 23.9321L78.9977 24.8679ZM80.2356 23.3206C80.7713 22.9085 81.2668 22.6716 81.7227 22.5664L81.273 20.6176C80.4809 20.8004 79.7284 21.1875 79.0162 21.7354L80.2356 23.3206ZM81.7074 22.5698C82.3299 22.4364 82.8577 22.376 83.2979 22.376V20.376C82.6821 20.376 82.0098 20.4596 81.2883 20.6142L81.7074 22.5698ZM83.2979 22.376C83.621 22.376 84.0108 22.4302 84.4748 22.5568L85.001 20.6272C84.4089 20.4658 83.8387 20.376 83.2979 20.376V22.376ZM84.559 22.5759C84.9106 22.6398 85.3014 22.8063 85.7337 23.1207L86.91 21.5033C86.2864 21.0497 85.6212 20.7362 84.9168 20.6081L84.559 22.5759ZM85.818 23.1758C86.2427 23.4235 86.6986 23.8425 87.1715 24.4874L88.7843 23.3046C88.2012 22.5095 87.5531 21.8725 86.8257 21.4482L85.818 23.1758ZM87.2186 24.5468C87.708 25.1177 88.213 25.9578 88.7186 27.1067L90.5492 26.3013C89.9987 25.0502 89.3998 24.0183 88.7371 23.2452L87.2186 24.5468ZM88.716 27.1008L104.124 62.7408L105.96 61.9472L90.5518 26.3072L88.716 27.1008ZM105.042 63.344H105.186V61.344H105.042V63.344ZM106.103 62.7424L121.583 27.1024L119.749 26.3056L104.269 61.9456L106.103 62.7424ZM121.581 27.1067C122.091 25.9474 122.58 25.0946 123.036 24.5138L121.464 23.2782C120.864 24.0413 120.296 25.0606 119.751 26.3013L121.581 27.1067ZM123.031 24.5207C123.567 23.8499 124.04 23.4117 124.443 23.1557L123.369 21.4683C122.715 21.8843 122.084 22.5021 121.469 23.2713L123.031 24.5207ZM124.461 23.144C124.97 22.8047 125.375 22.6347 125.686 22.5726L125.294 20.6114C124.644 20.7413 123.994 21.0513 123.351 21.4799L124.461 23.144ZM125.753 22.5568C126.217 22.4302 126.607 22.376 126.93 22.376V20.376C126.389 20.376 125.819 20.4658 125.227 20.6272L125.753 22.5568ZM126.93 22.376C127.314 22.376 127.788 22.4341 128.361 22.5664L128.811 20.6176C128.136 20.4619 127.506 20.376 126.93 20.376V22.376ZM128.376 22.5698C128.876 22.6768 129.355 22.9103 129.818 23.2962L131.098 21.7598C130.409 21.1857 129.64 20.7952 128.795 20.6142L128.376 22.5698ZM129.858 23.328C130.274 23.6403 130.661 24.121 130.993 24.8258L132.803 23.9742C132.366 23.047 131.793 22.2797 131.058 21.728L129.858 23.328ZM131.014 24.8679C131.343 25.489 131.546 26.39 131.546 27.64H133.546C133.546 26.202 133.317 24.943 132.782 23.9321L131.014 24.8679ZM131.546 27.64V68.608H133.546V27.64H131.546ZM148.956 63.136L149.619 62.387L149.611 62.3797L149.602 62.3726L148.956 63.136ZM153.06 65.728L152.674 66.6502L152.686 66.6556L152.699 66.6606L153.06 65.728ZM160.836 66.232L161.049 67.2092L161.069 67.2048L161.089 67.1996L160.836 66.232ZM163.788 64.864L163.224 64.0387L163.213 64.0459L163.203 64.0533L163.788 64.864ZM165.948 62.56L165.091 62.0455L165.087 62.0522L165.083 62.059L165.948 62.56ZM165.876 55.72L165.051 56.2847L165.058 56.2952L165.066 56.3055L165.876 55.72ZM163.356 53.416L162.819 54.2597L162.833 54.2685L162.848 54.2769L163.356 53.416ZM159.612 51.688L159.296 52.6367L159.612 51.688ZM155.076 50.176L155.392 49.2273L155.384 49.2243L155.375 49.2215L155.076 50.176ZM150.468 48.448L150.067 49.3642L150.468 48.448ZM146.292 45.784L145.615 46.5199L145.622 46.5265L145.63 46.533L146.292 45.784ZM143.34 41.752L142.435 42.1778L142.44 42.1883L143.34 41.752ZM143.772 29.008L142.911 28.5L142.906 28.5083L142.901 28.5167L143.772 29.008ZM148.02 24.4L148.591 25.2214L148.595 25.2182L148.02 24.4ZM153.996 21.664L154.249 22.6316L154.258 22.6291L154.268 22.6263L153.996 21.664ZM166.812 21.592L166.531 22.5517L166.545 22.5557L166.559 22.5594L166.812 21.592ZM171.996 24.04L171.388 24.8336L171.395 24.8394L171.403 24.8451L171.996 24.04ZM173.796 25.984L174.704 25.5649V25.5649L173.796 25.984ZM173.076 30.664L172.369 29.9569L172.358 29.9683L172.347 29.9801L173.076 30.664ZM169.044 31.672L168.728 32.6207L168.777 32.637L168.827 32.6482L169.044 31.672ZM167.244 30.664L166.669 31.4819L166.678 31.488L167.244 30.664ZM163.572 28.792L163.292 29.752L163.572 28.792ZM157.236 28.72L157.458 29.6951L157.479 29.6904L157.499 29.6848L157.236 28.72ZM154.356 29.944L154.878 30.7973L154.895 30.787L154.911 30.776L154.356 29.944ZM152.196 32.104L151.351 31.57L151.347 31.5762L151.343 31.5825L152.196 32.104ZM152.124 38.224L151.262 38.731L152.124 38.224ZM154.068 40.312L153.492 41.129L153.502 41.1367L153.514 41.144L154.068 40.312ZM157.164 41.824L156.826 42.7649L157.164 41.824ZM161.124 43.12L161.432 42.1686L161.422 42.1653L161.412 42.1622L161.124 43.12ZM166.164 44.92L165.802 45.852L165.81 45.8553L166.164 44.92ZM170.988 47.584L170.38 48.3776L170.386 48.3824L170.392 48.3871L170.988 47.584ZM174.588 51.76L173.709 52.2371L173.715 52.2467L173.72 52.2561L174.588 51.76ZM174.516 65.224L175.411 65.6712L175.415 65.6628L174.516 65.224ZM170.484 70.264L169.86 69.4831L170.484 70.264ZM164.58 73.288L164.295 72.3296L164.58 73.288ZM149.748 73.144L150.042 72.1881L150.03 72.1846L149.748 73.144ZM143.484 69.76L144.149 69.0126L144.135 69.0001L144.12 68.9881L143.484 69.76ZM141.828 67.816L140.887 68.1523L140.902 68.1945L140.92 68.2351L141.828 67.816ZM142.62 63.064L141.893 62.3774L141.892 62.3786L142.62 63.064ZM147.228 62.056L147.57 61.1162L147.228 62.056ZM148.294 63.885C149.621 65.059 151.081 65.9826 152.674 66.6502L153.447 64.8058C152.063 64.2254 150.788 63.421 149.619 62.387L148.294 63.885ZM152.699 66.6606C154.298 67.2794 155.932 67.592 157.596 67.592V65.592C156.188 65.592 154.799 65.3286 153.421 64.7954L152.699 66.6606ZM157.596 67.592C158.728 67.592 159.88 67.4633 161.049 67.2092L160.624 65.2548C159.585 65.4807 158.576 65.592 157.596 65.592V67.592ZM161.089 67.1996C162.304 66.8826 163.402 66.3761 164.374 65.6747L163.203 64.0533C162.446 64.5999 161.577 65.0054 160.584 65.2644L161.089 67.1996ZM164.353 65.6893C165.382 64.9852 166.207 64.1085 166.814 63.061L165.083 62.059C164.633 62.8355 164.019 63.4948 163.224 64.0387L164.353 65.6893ZM166.806 63.0745C167.495 61.9254 167.812 60.5614 167.812 59.032H165.812C165.812 60.2866 165.553 61.2746 165.091 62.0455L166.806 63.0745ZM167.812 59.032C167.812 57.5331 167.463 56.2089 166.687 55.1345L165.066 56.3055C165.538 56.9591 165.812 57.8429 165.812 59.032H167.812ZM166.702 55.1553C165.986 54.1099 165.033 53.2452 163.865 52.5551L162.848 54.2769C163.792 54.8348 164.518 55.5061 165.051 56.2847L166.702 55.1553ZM163.893 52.5723C162.755 51.8483 161.43 51.2399 159.928 50.7393L159.296 52.6367C160.674 53.0961 161.845 53.6397 162.819 54.2597L163.893 52.5723ZM159.928 50.7393C158.488 50.2593 156.976 49.7553 155.392 49.2273L154.76 51.1247C156.344 51.6527 157.856 52.1567 159.296 52.6367L159.928 50.7393ZM155.375 49.2215C153.875 48.7529 152.373 48.1898 150.869 47.5318L150.067 49.3642C151.635 50.0502 153.206 50.6391 154.778 51.1305L155.375 49.2215ZM150.869 47.5318C149.428 46.9013 148.124 46.0696 146.955 45.035L145.63 46.533C146.956 47.7064 148.437 48.6507 150.067 49.3642L150.869 47.5318ZM146.969 45.0481C145.869 44.0356 144.958 42.7958 144.24 41.3157L142.44 42.1883C143.259 43.8762 144.316 45.3244 145.615 46.5199L146.969 45.0481ZM144.245 41.3262C143.557 39.8638 143.188 38.0032 143.188 35.704H141.188C141.188 38.2048 141.588 40.3762 142.435 42.1778L144.245 41.3262ZM143.188 35.704C143.188 33.2488 143.688 31.1933 144.643 29.4993L142.901 28.5167C141.745 30.5667 141.188 32.9752 141.188 35.704H143.188ZM144.634 29.516C145.667 27.764 146.985 26.3364 148.591 25.2214L147.45 23.5786C145.599 24.8636 144.086 26.508 142.911 28.5L144.634 29.516ZM148.595 25.2182C150.269 24.0423 152.15 23.179 154.249 22.6316L153.744 20.6964C151.426 21.301 149.324 22.2617 147.445 23.5818L148.595 25.2182ZM154.268 22.6263C156.387 22.0274 158.552 21.728 160.764 21.728V19.728C158.369 19.728 156.021 20.0526 153.724 20.7017L154.268 22.6263ZM160.764 21.728C162.734 21.728 164.655 22.0026 166.531 22.5517L167.093 20.6323C165.033 20.0294 162.923 19.728 160.764 19.728V21.728ZM166.559 22.5594C168.465 23.0586 170.068 23.8217 171.388 24.8336L172.605 23.2464C171.045 22.0503 169.191 21.1814 167.066 20.6246L166.559 22.5594ZM171.403 24.8451C172.257 25.4746 172.703 26.0011 172.888 26.4031L174.704 25.5649C174.314 24.7189 173.559 23.9494 172.589 23.2349L171.403 24.8451ZM172.888 26.4031C173.122 26.9091 173.228 27.3908 173.228 27.856H175.228C175.228 27.0732 175.047 26.3069 174.704 25.5649L172.888 26.4031ZM173.228 27.856C173.228 28.6997 172.946 29.3799 172.369 29.9569L173.783 31.3711C174.742 30.4121 175.228 29.2203 175.228 27.856H173.228ZM172.347 29.9801C171.835 30.5262 171.173 30.816 170.268 30.816V32.816C171.668 32.816 172.878 32.3378 173.806 31.3479L172.347 29.9801ZM170.268 30.816C169.967 30.816 169.632 30.7783 169.261 30.6958L168.827 32.6482C169.32 32.7577 169.801 32.816 170.268 32.816V30.816ZM169.36 30.7233C169.069 30.626 168.565 30.3582 167.811 29.84L166.678 31.488C167.46 32.0258 168.156 32.43 168.728 32.6207L169.36 30.7233ZM167.82 29.8462C166.461 28.8899 165.138 28.2069 163.852 27.832L163.292 29.752C164.311 30.0491 165.436 30.614 166.669 31.4818L167.82 29.8462ZM163.852 27.832C162.631 27.4758 161.479 27.288 160.404 27.288V29.288C161.249 29.288 162.21 29.4362 163.292 29.752L163.852 27.832ZM160.404 27.288C159.256 27.288 158.112 27.4447 156.973 27.7552L157.499 29.6848C158.473 29.4193 159.44 29.288 160.404 29.288V27.288ZM157.015 27.7449C155.845 28.0107 154.771 28.4655 153.802 29.1119L154.911 30.776C155.669 30.2705 156.516 29.9093 157.458 29.6951L157.015 27.7449ZM153.835 29.0907C152.831 29.704 152.003 30.5368 151.351 31.57L153.042 32.638C153.541 31.8472 154.153 31.24 154.878 30.7973L153.835 29.0907ZM151.343 31.5825C150.699 32.6364 150.404 33.8827 150.404 35.272H152.404C152.404 34.1653 152.638 33.2996 153.05 32.6254L151.343 31.5825ZM150.404 35.272C150.404 36.5637 150.674 37.7312 151.262 38.731L152.986 37.717C152.614 37.0848 152.404 36.2843 152.404 35.272H150.404ZM151.262 38.731C151.818 39.6761 152.566 40.4757 153.492 41.129L154.645 39.495C153.938 38.9963 153.39 38.4039 152.986 37.717L151.262 38.731ZM153.514 41.144C154.458 41.7738 155.566 42.3114 156.826 42.7649L157.503 40.8831C156.363 40.4725 155.406 40.0022 154.623 39.4799L153.514 41.144ZM156.826 42.7649C158.045 43.204 159.383 43.6415 160.837 44.0778L161.412 42.1622C159.986 41.7345 158.683 41.308 157.503 40.8831L156.826 42.7649ZM160.816 44.0714C162.429 44.593 164.09 45.1865 165.802 45.852L166.527 43.988C164.782 43.3095 163.084 42.703 161.432 42.1686L160.816 44.0714ZM165.81 45.8553C167.499 46.4944 169.021 47.3357 170.38 48.3776L171.597 46.7904C170.076 45.6243 168.381 44.6896 166.518 43.9847L165.81 45.8553ZM170.392 48.3871C171.76 49.4015 172.865 50.6809 173.709 52.2371L175.467 51.2829C174.488 49.4791 173.193 47.9745 171.584 46.7809L170.392 48.3871ZM173.72 52.2561C174.572 53.7473 175.028 55.6527 175.028 58.024H177.028C177.028 55.4033 176.524 53.1327 175.456 51.2639L173.72 52.2561ZM175.028 58.024C175.028 60.6367 174.547 62.8815 173.618 64.7852L175.415 65.6628C176.501 63.4385 177.028 60.8833 177.028 58.024H175.028ZM173.622 64.7768C172.675 66.6697 171.421 68.2338 169.86 69.4831L171.109 71.0449C172.907 69.6062 174.341 67.8103 175.411 65.6712L173.622 64.7768ZM169.86 69.4831C168.289 70.7394 166.439 71.6909 164.295 72.3296L164.866 74.2464C167.234 73.5411 169.319 72.4766 171.109 71.0449L169.86 69.4831ZM164.295 72.3296C162.137 72.9724 159.857 73.296 157.452 73.296V75.296C160.039 75.296 162.512 74.9476 164.866 74.2464L164.295 72.3296ZM157.452 73.296C154.911 73.296 152.442 72.9266 150.042 72.1882L149.454 74.0998C152.046 74.8974 154.714 75.296 157.452 75.296V73.296ZM150.03 72.1846C147.709 71.5019 145.755 70.4408 144.149 69.0126L142.82 70.5074C144.669 72.1511 146.891 73.3461 149.466 74.1034L150.03 72.1846ZM144.12 68.9881C143.364 68.3652 142.936 67.8306 142.736 67.3969L140.92 68.2351C141.296 69.0494 141.973 69.8108 142.849 70.5319L144.12 68.9881ZM142.77 67.4797C142.556 66.8802 142.468 66.397 142.468 66.016H140.468C140.468 66.691 140.621 67.4078 140.887 68.1523L142.77 67.4797ZM142.468 66.016C142.468 65.1108 142.76 64.3742 143.348 63.7494L141.892 62.3786C140.944 63.3858 140.468 64.6172 140.468 66.016H142.468ZM143.347 63.7506C143.964 63.0976 144.728 62.768 145.716 62.768V60.768C144.209 60.768 142.909 61.3024 141.893 62.3774L143.347 63.7506ZM145.716 62.768C146.062 62.768 146.45 62.837 146.887 62.9958L147.57 61.1162C146.951 60.891 146.331 60.768 145.716 60.768V62.768ZM146.887 62.9958C147.265 63.1335 147.739 63.4161 148.31 63.8994L149.602 62.3726C148.925 61.7999 148.247 61.3625 147.57 61.1162L146.887 62.9958Z" fill="white"/>
<path d="M308.16 53.3651L308.04 66.2645C308.032 67.1645 307.875 67.8881 307.57 68.4353C307.315 68.9829 306.986 69.4299 306.582 69.7762C306.18 70.0724 305.753 70.2685 305.302 70.3643C304.851 70.4601 304.476 70.5066 304.176 70.5038C303.876 70.5011 303.501 70.4476 303.052 70.3434C302.603 70.2392 302.18 70.0353 301.783 69.7316C301.386 69.3779 301.04 68.9247 300.745 68.3719C300.5 67.8196 300.382 67.0935 300.39 66.1935L300.51 53.2941L287.611 53.1743C286.711 53.1659 285.987 53.0342 285.439 52.7791C284.892 52.474 284.445 52.1199 284.099 51.7166C283.803 51.3139 283.607 50.887 283.511 50.4361C283.415 49.9852 283.369 49.6098 283.371 49.3098C283.374 49.0098 283.428 48.6353 283.532 48.1862C283.636 47.7372 283.84 47.314 284.144 46.9168C284.497 46.5201 284.95 46.1993 285.503 45.9544C286.055 45.6595 286.782 45.5163 287.682 45.5246L300.581 45.6444L300.701 32.745C300.709 31.845 300.841 31.1212 301.096 30.5735C301.401 30.0263 301.755 29.6046 302.158 29.3083C302.561 28.9621 302.988 28.741 303.439 28.6452C303.89 28.5494 304.266 28.5029 304.566 28.5056C304.866 28.5084 305.24 28.5619 305.689 28.6661C306.138 28.7703 306.561 28.9992 306.958 29.3529C307.355 29.6566 307.676 30.0846 307.921 30.6369C308.216 31.1897 308.359 31.916 308.351 32.816L308.231 45.7154L321.13 45.8352C322.03 45.8435 322.754 46.0003 323.301 46.3054C323.849 46.5604 324.271 46.8894 324.567 47.2921C324.913 47.6954 325.134 48.1225 325.23 48.5734C325.326 49.0243 325.372 49.3997 325.37 49.6997C325.367 49.9997 325.313 50.3742 325.209 50.8233C325.105 51.2723 324.876 51.6952 324.522 52.0919C324.219 52.4891 323.791 52.8352 323.238 53.1301C322.685 53.3749 321.959 53.4932 321.059 53.4849L308.16 53.3651Z" fill="#3FB036"/>
</svg>
