<svg xmlns="http://www.w3.org/2000/svg" width="171.845" height="36.253" viewBox="0 0 171.845 36.253">
  <g id="Grupo_2230" data-name="Grupo 2230" transform="translate(-55.591 -62.724)">
    <path id="Trazado_1019" data-name="Trazado 1019" d="M-52.5-4.192h7.3L-45.936,0H-58.7l3.968-22.624h5.472ZM-29.52-22.976a11.116,11.116,0,0,1,5.376,1.232,8.506,8.506,0,0,1,3.488,3.456,10.535,10.535,0,0,1,1.216,5.136,15.953,15.953,0,0,1-.256,2.72A13.435,13.435,0,0,1-21.952-4.88,11.842,11.842,0,0,1-26.3-1.12,12.754,12.754,0,0,1-32.176.224,11.476,11.476,0,0,1-37.632-.992,8.309,8.309,0,0,1-41.12-4.416a10.624,10.624,0,0,1-1.2-5.152,17.076,17.076,0,0,1,.256-2.784,13.3,13.3,0,0,1,2.272-5.52,11.977,11.977,0,0,1,4.368-3.76A12.825,12.825,0,0,1-29.52-22.976Zm-.416,5.088a6.342,6.342,0,0,0-4.432,1.68,7.835,7.835,0,0,0-2.352,4.592,10.057,10.057,0,0,0-.16,1.6,5.116,5.116,0,0,0,1.344,3.76A5.07,5.07,0,0,0-31.76-4.9a6.268,6.268,0,0,0,4.4-1.7,7.862,7.862,0,0,0,2.352-4.544,9.927,9.927,0,0,0,.128-1.632,5.153,5.153,0,0,0-1.328-3.76A4.972,4.972,0,0,0-29.936-17.888Zm25.984-4.96a9.293,9.293,0,0,1,6.5,2.128,8.049,8.049,0,0,1,2.592,5.584H-.624a3.59,3.59,0,0,0-1.44-1.936,4.732,4.732,0,0,0-2.72-.72,6.38,6.38,0,0,0-4.48,1.744,8.062,8.062,0,0,0-2.4,4.72,8.99,8.99,0,0,0-.16,1.76A4.757,4.757,0,0,0-10.464-5.9,5.6,5.6,0,0,0-6.512-4.64,6.548,6.548,0,0,0-2.9-5.712,7.325,7.325,0,0,0-.272-8.768H-7.184l.7-3.936H4.976L4.048-7.3A12.747,12.747,0,0,1-.48-1.872,12.888,12.888,0,0,1-7.92.192,10.8,10.8,0,0,1-13.04-.944,7.819,7.819,0,0,1-16.32-4.16a9.992,9.992,0,0,1-1.136-4.864,14.464,14.464,0,0,1,.224-2.56,14.008,14.008,0,0,1,2.416-5.824,12.867,12.867,0,0,1,4.656-4A13.434,13.434,0,0,1-3.952-22.848Zm19.232.224L11.312,0H5.84L9.808-22.624Zm14.144-.224a9.506,9.506,0,0,1,6.752,2.272,8.406,8.406,0,0,1,2.56,6.144h-5.76a4.13,4.13,0,0,0-1.52-2.464,4.83,4.83,0,0,0-3.024-.9,5.757,5.757,0,0,0-4.16,1.76,8.4,8.4,0,0,0-2.3,4.7,10.182,10.182,0,0,0-.16,1.632,4.984,4.984,0,0,0,1.184,3.52,4.147,4.147,0,0,0,3.2,1.28,6.3,6.3,0,0,0,3.312-.9,6.768,6.768,0,0,0,2.384-2.432H37.68A13.438,13.438,0,0,1,32.912-2.1,12.682,12.682,0,0,1,25.392.192a10.321,10.321,0,0,1-4.96-1.12A7.586,7.586,0,0,1,17.264-4.08,9.85,9.85,0,0,1,16.176-8.8a13.931,13.931,0,0,1,.224-2.528,14.686,14.686,0,0,1,2.4-5.984,12.8,12.8,0,0,1,4.576-4.08A12.731,12.731,0,0,1,29.424-22.848Zm27.2,17.28a6.16,6.16,0,0,1-1.392,2.912A7.736,7.736,0,0,1,52.3-.56a10.532,10.532,0,0,1-4.192.784,8.931,8.931,0,0,1-6.08-1.9,6.571,6.571,0,0,1-2.208-5.136h5.824A2.574,2.574,0,0,0,46.224-4.8a2.51,2.51,0,0,0,1.952.736,2.564,2.564,0,0,0,1.872-.7,2.438,2.438,0,0,0,.72-1.824,2.019,2.019,0,0,0-.48-1.36,4.1,4.1,0,0,0-1.2-.944q-.72-.384-2.064-.928a24.057,24.057,0,0,1-2.96-1.392,5.881,5.881,0,0,1-1.936-1.84,5.2,5.2,0,0,1-.8-2.976,8.954,8.954,0,0,1,.128-1.536A5.719,5.719,0,0,1,44.24-21.52a10.375,10.375,0,0,1,5.6-1.456q4,0,6,1.808a6.583,6.583,0,0,1,2.1,4.912H52.048a2.341,2.341,0,0,0-.528-1.776,2.229,2.229,0,0,0-1.744-.656,2.579,2.579,0,0,0-1.744.592,2.1,2.1,0,0,0-.688,1.68,1.85,1.85,0,0,0,.464,1.264,3.785,3.785,0,0,0,1.168.88q.7.352,2.016.9a24.057,24.057,0,0,1,2.96,1.392,6.187,6.187,0,0,1,1.968,1.84,5.11,5.11,0,0,1,.832,3.008A9.522,9.522,0,0,1,56.624-5.568Z" transform="translate(169.5 92)" fill="#fff"/>
    <g id="sweep" transform="translate(55.591 62.724)">
      <g id="Grupo_2057" data-name="Grupo 2057" transform="translate(11.89 21.313)">
        <circle id="Elipse_6" data-name="Elipse 6" cx="1.062" cy="1.062" r="1.062" transform="translate(0 12.816)" fill="#ffc400"/>
        <circle id="Elipse_7" data-name="Elipse 7" cx="1.062" cy="1.062" r="1.062" transform="translate(0 8.497)" fill="#ffc400"/>
        <circle id="Elipse_8" data-name="Elipse 8" cx="1.062" cy="1.062" r="1.062" transform="translate(0 4.248)" fill="#ffc400"/>
        <circle id="Elipse_9" data-name="Elipse 9" cx="1.062" cy="1.062" r="1.062" fill="#ffc400"/>
      </g>
      <g id="Grupo_2058" data-name="Grupo 2058" transform="translate(0)">
        <path id="Trazado_983" data-name="Trazado 983" d="M42.3,18.126A18.128,18.128,0,0,1,24.242,36.253a1.062,1.062,0,1,1,0-2.124A16,16,0,1,0,9.118,13.113,1.061,1.061,0,0,1,7.1,12.455a18.043,18.043,0,0,1,35.2,5.672Z" transform="translate(-7.042)" fill="#17ace8"/>
        <path id="Trazado_984" data-name="Trazado 984" d="M91.146,74.807A13.834,13.834,0,0,1,77.339,88.615a1.062,1.062,0,1,1,0-2.124A11.683,11.683,0,1,0,66.251,71.111a1.064,1.064,0,0,1-1.338.68,1.1,1.1,0,0,1-.68-1.359,13.813,13.813,0,0,1,26.913,4.376Z" transform="translate(-60.139 -56.681)" fill="#17ace8"/>
        <path id="Trazado_985" data-name="Trazado 985" d="M139.729,130.559a9.573,9.573,0,0,1-9.559,9.559,1.062,1.062,0,0,1,0-2.124,7.435,7.435,0,1,0-7.052-9.793,1.064,1.064,0,0,1-1.338.68,1.047,1.047,0,0,1-.68-1.338,9.559,9.559,0,0,1,18.629,3.016Z" transform="translate(-112.97 -112.432)" fill="#17ace8"/>
        <path id="Trazado_986" data-name="Trazado 986" d="M188.442,186.311a5.312,5.312,0,0,1-5.31,5.31,1.062,1.062,0,1,1,0-2.124,3.186,3.186,0,0,0,0-6.373,3.149,3.149,0,0,0-3.016,2.188,1.067,1.067,0,0,1-1.359.659,1.052,1.052,0,0,1-.658-1.338,5.308,5.308,0,0,1,10.345,1.678Z" transform="translate(-165.932 -168.184)" fill="#17ace8"/>
      </g>
      <g id="Grupo_2059" data-name="Grupo 2059" transform="translate(17.2)">
        <path id="Trazado_987" data-name="Trazado 987" d="M259.517,130.559a9.573,9.573,0,0,1-9.559,9.559v-2.124a7.435,7.435,0,1,0,0-14.869V121A9.573,9.573,0,0,1,259.517,130.559Z" transform="translate(-249.958 -112.432)" fill="#1689fc"/>
        <path id="Trazado_988" data-name="Trazado 988" d="M263.765,74.807a13.834,13.834,0,0,1-13.807,13.807V86.49a11.683,11.683,0,1,0,0-23.366V61A13.834,13.834,0,0,1,263.765,74.807Z" transform="translate(-249.958 -56.681)" fill="#1689fc"/>
        <path id="Trazado_989" data-name="Trazado 989" d="M268.014,18.126a18.128,18.128,0,0,1-18.056,18.126V34.129a16,16,0,0,0,0-32V0A18.128,18.128,0,0,1,268.014,18.126Z" transform="translate(-249.958)" fill="#1689fc"/>
        <path id="Trazado_990" data-name="Trazado 990" d="M255.269,186.311a5.312,5.312,0,0,1-5.311,5.31V189.5a3.186,3.186,0,1,0,0-6.373V181A5.312,5.312,0,0,1,255.269,186.311Z" transform="translate(-249.958 -168.184)" fill="#1689fc"/>
      </g>
    </g>
  </g>
</svg>
