<svg id="_003-login" data-name="003-login" xmlns="http://www.w3.org/2000/svg" width="21.854" height="21.854" viewBox="0 0 21.854 21.854">
  <g id="Grupo_1973" data-name="Grupo 1973">
    <g id="Grupo_1972" data-name="Grupo 1972">
      <path id="Trazado_915" data-name="Trazado 915" d="M4.612,157.09a.475.475,0,0,1-.672.672l-3.8-3.8a.474.474,0,0,1-.1-.155.468.468,0,0,1-.021-.1A.445.445,0,0,1,0,153.625a.451.451,0,0,1,.021-.1.434.434,0,0,1,.016-.078.5.5,0,0,1,.105-.159l3.8-3.8a.475.475,0,1,1,.672.672l-2.99,2.989H12.827a.475.475,0,1,1,0,.95H1.622Z" transform="translate(8.551 -142.698)" fill="#404348"/>
      <path id="Trazado_916" data-name="Trazado 916" d="M151.708,0H162.16a2.379,2.379,0,0,1,2.375,2.375V7.126a.475.475,0,1,1-.95,0V2.375A1.427,1.427,0,0,0,162.16.95H151.708a1.427,1.427,0,0,0-1.425,1.425v17.1a1.427,1.427,0,0,0,1.425,1.425H162.16a1.427,1.427,0,0,0,1.425-1.425V14.728a.475.475,0,1,1,.95,0v4.751a2.379,2.379,0,0,1-2.375,2.375H151.708a2.379,2.379,0,0,1-2.375-2.375V2.375A2.379,2.379,0,0,1,151.708,0Z" transform="translate(-149.333)" fill="#404348"/>
    </g>
  </g>
</svg>
