<svg width="73" height="112" viewBox="0 0 73 112" fill="none" xmlns="http://www.w3.org/2000/svg">
<path d="M36.4995 7C16.3423 7 0 23.3418 0 43.5005C0 50.712 2.09461 57.3957 5.70347 63.0533C5.87763 63.3297 6.01112 63.6008 6.19257 63.872L28.8396 105.91C29.9033 108.966 32.9172 111.286 36.3378 111.286C39.7585 111.286 42.6055 108.966 43.6692 105.91L68.9276 60.2845C71.5295 55.2631 73 49.5429 73 43.5005C73 23.3418 56.6582 7 36.4995 7Z" fill="#9E9E9E"/>
<path d="M36.4995 7C16.3423 7 0 23.1645 0 43.5005C0 50.2792 2.09461 57.0576 5.70347 62.7934C5.87763 63.3148 6.01112 63.3152 6.19257 63.8367L28.8396 105.552C29.9033 108.68 32.9172 111.287 36.3378 111.287C39.7585 111.287 42.6055 108.68 43.6692 105.552L68.9276 60.1862C71.5295 54.9719 73 49.2363 73 43.5005C73 23.1645 56.6582 7 36.4995 7Z" fill="#5C5C5C" fill-opacity="0.5"/>
<path d="M36.4995 0C16.3423 0 0 16.3418 0 36.5005C0 43.712 2.09461 50.3957 5.70347 56.0533C5.87763 56.3297 6.01112 56.6008 6.19257 56.872L28.8396 98.9102C29.9033 101.966 32.9172 104.286 36.3378 104.286C39.7585 104.286 42.6055 101.966 43.6692 98.9102L68.9276 53.2845C71.5295 48.2631 73 42.5429 73 36.5005C73 16.3418 56.6582 0 36.4995 0Z" fill="#9E9E9E"/>
<path d="M58.3215 43.1514C58.0851 42.8136 57.6966 42.6109 57.2913 42.6109H49.4375V39.2667C49.4375 38.5743 48.8632 38 48.1707 38H19.7113C19.0188 38 18.4446 38.5743 18.4446 39.2667V59.7373C18.4446 60.4297 19.0188 61.004 19.7113 61.004H23.292C23.9507 63.301 26.0788 65.0069 28.5785 65.0069C31.0782 65.0069 33.2063 63.3179 33.865 61.004H47.9005C48.5592 63.301 50.6873 65.0069 53.187 65.0069C55.6867 65.0069 57.8148 63.3179 58.4735 61.004H61.0915C61.784 61.004 62.3582 60.4297 62.3582 59.7373V49.3162C62.3582 49.046 62.2738 48.7926 62.1217 48.5899L58.3215 43.1514ZM59.8416 49.6878H54.1666V45.1613H56.6494L59.8416 49.6878ZM20.9781 40.5504H46.904V58.4874H33.9833C33.4934 55.937 31.264 54.0116 28.5785 54.0116C25.893 54.0116 23.6467 55.937 23.1737 58.4874H20.9781V40.5504ZM28.5785 62.4734C26.9402 62.4734 25.6059 61.1391 25.6059 59.5008C25.6059 57.8625 26.9402 56.5282 28.5785 56.5282C30.2168 56.5282 31.5511 57.8625 31.5511 59.5008C31.5511 61.1391 30.2168 62.4734 28.5785 62.4734ZM53.2039 62.4734C51.5656 62.4734 50.2313 61.1391 50.2313 59.5008C50.2313 57.8625 51.5656 56.5282 53.2039 56.5282C54.8422 56.5282 56.1765 57.8625 56.1765 59.5008C56.1765 61.1391 54.8422 62.4734 53.2039 62.4734ZM58.6087 58.4874C58.1189 55.937 55.8894 54.0116 53.2039 54.0116C51.7514 54.0116 50.4171 54.5858 49.4375 55.5148V45.1613H51.6163V50.9545C51.6163 51.647 52.1905 52.2213 52.883 52.2213H59.8585V58.4874H58.6087Z" fill="white"/>
<path d="M6.26674 40.552H15.3028C15.9953 40.552 16.5696 39.9778 16.5696 39.2853C16.5696 38.5928 15.9953 38.0186 15.3028 38.0186H6.26674C5.57426 38.0186 5 38.5928 5 39.2853C5 39.9778 5.57426 40.552 6.26674 40.552Z" fill="white"/>
<path d="M15.303 42.6276H8.34437C7.65189 42.6276 7.07764 43.2018 7.07764 43.8943C7.07764 44.5868 7.65189 45.161 8.34437 45.161H15.303C15.9955 45.161 16.5697 44.5868 16.5697 43.8943C16.5697 43.2018 16.0124 42.6276 15.303 42.6276Z" fill="white"/>
<path d="M15.3022 47.2385H10.9108C10.2183 47.2385 9.64404 47.8128 9.64404 48.5053C9.64404 49.1977 10.2183 49.772 10.9108 49.772H15.3022C15.9947 49.772 16.5689 49.1977 16.5689 48.5053C16.5689 47.8128 16.0115 47.2385 15.3022 47.2385Z" fill="white"/>
<path d="M15.3029 51.85H13.7829C13.0904 51.85 12.5161 52.4242 12.5161 53.1167C12.5161 53.8092 13.0904 54.3835 13.7829 54.3835H15.3029C15.9954 54.3835 16.5697 53.8092 16.5697 53.1167C16.5697 52.4242 16.0123 51.85 15.3029 51.85Z" fill="white"/>
<rect x="7" y="12" width="59" height="19" rx="9" fill="#424141" fill-opacity="0.5" />
<text x="50%" y="24"  dominant-baseline="middle" text-anchor="middle" font-family="Arial" id="target3" font-size="1.2em" fill="white">00000</text>
<!-- <path d="M20.5172 22.1484C20.5172 23.8411 20.2281 25.099 19.65 25.9219C19.0719 26.7448 18.1682 27.1562 16.9391 27.1562C15.7255 27.1562 14.8271 26.7552 14.2437 25.9531C13.6604 25.1458 13.3583 23.9427 13.3375 22.3438V20.4141C13.3375 18.7422 13.6266 17.5 14.2047 16.6875C14.7828 15.875 15.6891 15.4688 16.9234 15.4688C18.1474 15.4688 19.0484 15.862 19.6266 16.6484C20.2047 17.4297 20.5016 18.638 20.5172 20.2734V22.1484ZM19.0719 20.1719C19.0719 18.9479 18.9 18.0573 18.5562 17.5C18.2125 16.9375 17.6682 16.6562 16.9234 16.6562C16.1839 16.6562 15.6448 16.9349 15.3062 17.4922C14.9677 18.0495 14.7932 18.9062 14.7828 20.0625V22.375C14.7828 23.6042 14.9599 24.513 15.3141 25.1016C15.6734 25.6849 16.2151 25.9766 16.9391 25.9766C17.6526 25.9766 18.1812 25.7005 18.525 25.1484C18.874 24.5964 19.0562 23.7266 19.0719 22.5391V20.1719ZM30.3016 22.1484C30.3016 23.8411 30.0125 25.099 29.4344 25.9219C28.8562 26.7448 27.9526 27.1562 26.7234 27.1562C25.5099 27.1562 24.6115 26.7552 24.0281 25.9531C23.4448 25.1458 23.1427 23.9427 23.1219 22.3438V20.4141C23.1219 18.7422 23.4109 17.5 23.9891 16.6875C24.5672 15.875 25.4734 15.4688 26.7078 15.4688C27.9318 15.4688 28.8328 15.862 29.4109 16.6484C29.9891 17.4297 30.2859 18.638 30.3016 20.2734V22.1484ZM28.8562 20.1719C28.8562 18.9479 28.6844 18.0573 28.3406 17.5C27.9969 16.9375 27.4526 16.6562 26.7078 16.6562C25.9682 16.6562 25.4292 16.9349 25.0906 17.4922C24.7521 18.0495 24.5776 18.9062 24.5672 20.0625V22.375C24.5672 23.6042 24.7443 24.513 25.0984 25.1016C25.4578 25.6849 25.9995 25.9766 26.7234 25.9766C27.437 25.9766 27.9656 25.7005 28.3094 25.1484C28.6583 24.5964 28.8406 23.7266 28.8562 22.5391V20.1719ZM40.0859 22.1484C40.0859 23.8411 39.7969 25.099 39.2188 25.9219C38.6406 26.7448 37.737 27.1562 36.5078 27.1562C35.2943 27.1562 34.3958 26.7552 33.8125 25.9531C33.2292 25.1458 32.9271 23.9427 32.9062 22.3438V20.4141C32.9062 18.7422 33.1953 17.5 33.7734 16.6875C34.3516 15.875 35.2578 15.4688 36.4922 15.4688C37.7161 15.4688 38.6172 15.862 39.1953 16.6484C39.7734 17.4297 40.0703 18.638 40.0859 20.2734V22.1484ZM38.6406 20.1719C38.6406 18.9479 38.4688 18.0573 38.125 17.5C37.7812 16.9375 37.237 16.6562 36.4922 16.6562C35.7526 16.6562 35.2135 16.9349 34.875 17.4922C34.5365 18.0495 34.362 18.9062 34.3516 20.0625V22.375C34.3516 23.6042 34.5286 24.513 34.8828 25.1016C35.2422 25.6849 35.7839 25.9766 36.5078 25.9766C37.2214 25.9766 37.75 25.7005 38.0938 25.1484C38.4427 24.5964 38.625 23.7266 38.6406 22.5391V20.1719ZM49.8703 22.1484C49.8703 23.8411 49.5812 25.099 49.0031 25.9219C48.425 26.7448 47.5214 27.1562 46.2922 27.1562C45.0786 27.1562 44.1802 26.7552 43.5969 25.9531C43.0135 25.1458 42.7115 23.9427 42.6906 22.3438V20.4141C42.6906 18.7422 42.9797 17.5 43.5578 16.6875C44.1359 15.875 45.0422 15.4688 46.2766 15.4688C47.5005 15.4688 48.4016 15.862 48.9797 16.6484C49.5578 17.4297 49.8547 18.638 49.8703 20.2734V22.1484ZM48.425 20.1719C48.425 18.9479 48.2531 18.0573 47.9094 17.5C47.5656 16.9375 47.0214 16.6562 46.2766 16.6562C45.537 16.6562 44.9979 16.9349 44.6594 17.4922C44.3208 18.0495 44.1464 18.9062 44.1359 20.0625V22.375C44.1359 23.6042 44.313 24.513 44.6672 25.1016C45.0266 25.6849 45.5682 25.9766 46.2922 25.9766C47.0057 25.9766 47.5344 25.7005 47.8781 25.1484C48.2271 24.5964 48.4094 23.7266 48.425 22.5391V20.1719ZM59.6547 22.1484C59.6547 23.8411 59.3656 25.099 58.7875 25.9219C58.2094 26.7448 57.3057 27.1562 56.0766 27.1562C54.863 27.1562 53.9646 26.7552 53.3812 25.9531C52.7979 25.1458 52.4958 23.9427 52.475 22.3438V20.4141C52.475 18.7422 52.7641 17.5 53.3422 16.6875C53.9203 15.875 54.8266 15.4688 56.0609 15.4688C57.2849 15.4688 58.1859 15.862 58.7641 16.6484C59.3422 17.4297 59.6391 18.638 59.6547 20.2734V22.1484ZM58.2094 20.1719C58.2094 18.9479 58.0375 18.0573 57.6937 17.5C57.35 16.9375 56.8057 16.6562 56.0609 16.6562C55.3214 16.6562 54.7823 16.9349 54.4437 17.4922C54.1052 18.0495 53.9307 18.9062 53.9203 20.0625V22.375C53.9203 23.6042 54.0974 24.513 54.4516 25.1016C54.8109 25.6849 55.3526 25.9766 56.0766 25.9766C56.7901 25.9766 57.3187 25.7005 57.6625 25.1484C58.0115 24.5964 58.1937 23.7266 58.2094 22.5391V20.1719Z" fill="white"/> -->
</svg>
